<svg fill="none" height="200" viewBox="0 0 600 200" width="600" xmlns="http://www.w3.org/2000/svg"><path d="m0 0h300v200h-300z" fill="#f2f3f5"/><path d="m89.6857 82.072-13.5939-7.8485-13.5918 7.8485v-7.8485l13.5939-7.8485 13.594 7.8485v7.8485z" fill="#a435f0"/><g fill="#000"><path d="m62.5 88.6616h7.1204v17.3004c0 4.471 3.3377 6.649 6.4735 6.649 3.1601 0 6.4736-2.237 6.4736-6.709v-17.2404h7.1204v17.7124c0 4.118-1.2938 7.296-3.8837 9.473-2.5898 2.178-5.8266 3.237-9.7695 3.237-3.9428 0-7.1796-1.059-9.7102-3.237-2.5307-2.177-3.8245-5.236-3.8245-9.298z"/><path d="m151.248 110.163c-2.156 1.919-4.612 2.86-7.412 2.86-5.105 0-8.533-2.91-8.919-7.417h23.008s.152-1.456.152-2.822c0-4.2366-1.354-7.7672-4.119-10.6509-2.706-2.8837-6.236-4.2959-10.532-4.2959-4.531 0-8.239 1.4122-11.182 4.2959-2.884 2.8837-4.355 6.6489-4.355 11.3569v.235c0 4.649 1.471 8.355 4.355 11.122 2.884 2.766 6.708 4.178 11.357 4.178 5.406 0 9.708-2.132 12.936-5.809zm-13.533-14.4401c1.588-1.2368 3.531-1.8837 5.708-1.8837 2.06 0 3.766.6469 5.237 1.9429 1.406 1.1798 2.164 2.6293 2.23 4.2959h-15.793c.228-1.7214 1.098-3.1731 2.618-4.3551z"/><path d="m222.928 123.023c-2.893 6.82-5.914 9.14-10.548 9.14-.794 0-3.211 0-3.211 0v-6.312h2.597c1.594 0 3.077-.598 4.489-3.859s1.412-3.261 1.412-3.261l-12.182-30.0694h7.239l8.651 21.6554 8.886-21.6554h7.239c-.002 0-11.596 27.3414-14.572 34.3614z"/><path d="m117.409 77.3044v14.0435c-2.333-2.092-5.963-3.3354-9.473-3.3354-4.178 0-7.709 1.4715-10.5923 4.4714-2.8245 2.9429-4.2368 6.5897-4.2368 11.0041 0 4.414 1.4123 8.061 4.2368 11.063 2.8833 2.943 6.4143 4.415 10.5923 4.415 4.82 0 7.863-1.893 9.473-3.377v2.73h7.061v-41.0146zm-2.118 32.6596c-1.707 1.706-3.884 2.59-6.415 2.59-2.53 0-4.59-.884-6.296-2.59-1.647-1.706-2.471-3.884-2.471-6.474s.824-4.7672 2.471-6.4733c1.706-1.7061 3.766-2.5899 6.296-2.5899 2.531 0 4.708.8838 6.415 2.5899 1.765 1.7061 2.649 3.8833 2.649 6.4733s-.884 4.768-2.649 6.474z"/><path d="m194.508 88.074c-5.364 0-8.154 2.2258-10.064 4.3683-.763-1.4561-2.914-4.3683-7.942-4.3683-4.248 0-6.755 2.1469-8.002 3.6775v-3.0876h-7.002v29.6571h7.002v-17.065c0-4.0024 2.471-6.8861 5.767-6.8861 3.355 0 5.296 2.5306 5.296 6.5901v17.359h7.002v-17.066c0-4.0608 2.412-6.8853 5.884-6.8853 3.355 0 5.295 2.5306 5.295 6.5893v17.36h7.062v-18.3596c0-7.7322-4.156-11.8834-10.298-11.8834z"/></g><path d="m300 0h300v200h-300z" fill="#1c1d1f"/><path d="m389.686 82.072-13.594-7.8485-13.592 7.8485v-7.8485l13.594-7.8485 13.594 7.8485v7.8485z" fill="#a435f0"/><path d="m362.5 88.6616h7.12v17.3004c0 4.471 3.338 6.649 6.474 6.649 3.16 0 6.473-2.237 6.473-6.709v-17.2404h7.121v17.7124c0 4.118-1.294 7.296-3.884 9.473-2.59 2.178-5.826 3.237-9.769 3.237s-7.18-1.059-9.711-3.237c-2.53-2.177-3.824-5.236-3.824-9.298z" fill="#fff"/><path d="m451.248 110.163c-2.156 1.919-4.612 2.86-7.412 2.86-5.105 0-8.533-2.91-8.919-7.417h23.008s.152-1.456.152-2.822c0-4.2366-1.354-7.7672-4.119-10.6509-2.706-2.8837-6.236-4.2959-10.532-4.2959-4.531 0-8.239 1.4122-11.182 4.2959-2.884 2.8837-4.355 6.6489-4.355 11.3569v.235c0 4.649 1.471 8.355 4.355 11.122 2.884 2.766 6.708 4.178 11.357 4.178 5.406 0 9.708-2.132 12.936-5.809zm-13.533-14.4401c1.588-1.2368 3.531-1.8837 5.708-1.8837 2.06 0 3.766.6469 5.237 1.9429 1.406 1.1798 2.164 2.6293 2.23 4.2959h-15.793c.228-1.7214 1.098-3.1731 2.618-4.3551z" fill="#fff"/><path d="m522.928 123.023c-2.893 6.82-5.914 9.14-10.548 9.14-.794 0-3.211 0-3.211 0v-6.312h2.597c1.594 0 3.077-.598 4.489-3.859s1.412-3.261 1.412-3.261l-12.182-30.0694h7.239l8.651 21.6554 8.886-21.6554h7.239c-.002 0-11.596 27.3414-14.572 34.3614z" fill="#fff"/><path d="m417.409 77.3044v14.0435c-2.333-2.092-5.963-3.3354-9.473-3.3354-4.178 0-7.709 1.4715-10.592 4.4714-2.825 2.9429-4.237 6.5897-4.237 11.0041 0 4.414 1.412 8.061 4.237 11.063 2.883 2.943 6.414 4.415 10.592 4.415 4.82 0 7.863-1.893 9.473-3.377v2.73h7.061v-41.0146zm-2.118 32.6596c-1.707 1.706-3.884 2.59-6.415 2.59-2.53 0-4.59-.884-6.296-2.59-1.647-1.706-2.471-3.884-2.471-6.474s.824-4.7672 2.471-6.4733c1.706-1.7061 3.766-2.5899 6.296-2.5899 2.531 0 4.708.8838 6.415 2.5899 1.765 1.7061 2.649 3.8833 2.649 6.4733s-.884 4.768-2.649 6.474z" fill="#fff"/><path d="m494.508 88.074c-5.364 0-8.154 2.2258-10.064 4.3683-.763-1.4561-2.914-4.3683-7.942-4.3683-4.248 0-6.755 2.1469-8.002 3.6775v-3.0876h-7.002v29.6571h7.002v-17.065c0-4.0024 2.471-6.8861 5.767-6.8861 3.355 0 5.296 2.5306 5.296 6.5901v17.359h7.002v-17.066c0-4.0608 2.412-6.8853 5.884-6.8853 3.355 0 5.295 2.5306 5.295 6.5893v17.36h7.062v-18.3596c0-7.7322-4.156-11.8834-10.298-11.8834z" fill="#fff"/></svg>